<?xml version="1.0" encoding="UTF-8" standalone="no"?>
<!DOCTYPE svg PUBLIC "-//W3C//DTD SVG 1.1//EN"
 "http://www.w3.org/Graphics/SVG/1.1/DTD/svg11.dtd">
<!-- Generated by graphviz version 6.0.2 (20221126.1951)
 -->
<!-- Title: snakemake_dag Pages: 1 -->
<svg width="1555pt" height="116pt"
 viewBox="0.00 0.00 1555.00 116.00" xmlns="http://www.w3.org/2000/svg" xmlns:xlink="http://www.w3.org/1999/xlink">
<g id="graph0" class="graph" transform="scale(1 1) rotate(0) translate(4 112)">
<title>snakemake_dag</title>
<polygon fill="white" stroke="none" points="-4,4 -4,-112 1551,-112 1551,4 -4,4"/>
<!-- 0 -->
<g id="node1" class="node">
<title>0</title>
<path fill="none" stroke="#56d8a9" stroke-width="2" d="M873,-36C873,-36 843,-36 843,-36 837,-36 831,-30 831,-24 831,-24 831,-12 831,-12 831,-6 837,0 843,0 843,0 873,0 873,0 879,0 885,-6 885,-12 885,-12 885,-24 885,-24 885,-30 879,-36 873,-36"/>
<text text-anchor="middle" x="858" y="-15.5" font-family="sans" font-size="10.00">all</text>
</g>
<!-- 1 -->
<g id="node2" class="node">
<title>1</title>
<path fill="none" stroke="#d85656" stroke-width="2" d="M170,-108C170,-108 12,-108 12,-108 6,-108 0,-102 0,-96 0,-96 0,-84 0,-84 0,-78 6,-72 12,-72 12,-72 170,-72 170,-72 176,-72 182,-78 182,-84 182,-84 182,-96 182,-96 182,-102 176,-108 170,-108"/>
<text text-anchor="middle" x="91" y="-93" font-family="sans" font-size="10.00">clean_raw_reads</text>
<text text-anchor="middle" x="91" y="-82" font-family="sans" font-size="10.00">sample: NBS1051F&#45;30&#45;542494038</text>
</g>
<!-- 1&#45;&gt;0 -->
<g id="edge1" class="edge">
<title>1&#45;&gt;0</title>
<path fill="none" stroke="grey" stroke-width="2" d="M182.24,-73.15C185.19,-72.74 188.12,-72.36 191,-72 430.09,-42.24 719.59,-25.91 820.87,-20.79"/>
<polygon fill="grey" stroke="grey" stroke-width="2" points="821.1,-24.28 830.91,-20.28 820.75,-17.29 821.1,-24.28"/>
</g>
<!-- 2 -->
<g id="node3" class="node">
<title>2</title>
<path fill="none" stroke="#d85656" stroke-width="2" d="M297.5,-108C297.5,-108 212.5,-108 212.5,-108 206.5,-108 200.5,-102 200.5,-96 200.5,-96 200.5,-84 200.5,-84 200.5,-78 206.5,-72 212.5,-72 212.5,-72 297.5,-72 297.5,-72 303.5,-72 309.5,-78 309.5,-84 309.5,-84 309.5,-96 309.5,-96 309.5,-102 303.5,-108 297.5,-108"/>
<text text-anchor="middle" x="255" y="-93" font-family="sans" font-size="10.00">clean_raw_reads</text>
<text text-anchor="middle" x="255" y="-82" font-family="sans" font-size="10.00">sample: NBS1051F</text>
</g>
<!-- 2&#45;&gt;0 -->
<g id="edge2" class="edge">
<title>2&#45;&gt;0</title>
<path fill="none" stroke="grey" stroke-width="2" d="M309.68,-73.85C312.82,-73.18 315.95,-72.55 319,-72 505.72,-38.25 732.99,-24.78 820.85,-20.58"/>
<polygon fill="grey" stroke="grey" stroke-width="2" points="821.04,-24.08 830.87,-20.12 820.71,-17.09 821.04,-24.08"/>
</g>
<!-- 3 -->
<g id="node4" class="node">
<title>3</title>
<path fill="none" stroke="#d85656" stroke-width="2" d="M498,-108C498,-108 340,-108 340,-108 334,-108 328,-102 328,-96 328,-96 328,-84 328,-84 328,-78 334,-72 340,-72 340,-72 498,-72 498,-72 504,-72 510,-78 510,-84 510,-84 510,-96 510,-96 510,-102 504,-108 498,-108"/>
<text text-anchor="middle" x="419" y="-93" font-family="sans" font-size="10.00">clean_raw_reads</text>
<text text-anchor="middle" x="419" y="-82" font-family="sans" font-size="10.00">sample: NBS1079E&#45;30&#45;542494038</text>
</g>
<!-- 3&#45;&gt;0 -->
<g id="edge3" class="edge">
<title>3&#45;&gt;0</title>
<path fill="none" stroke="grey" stroke-width="2" d="M510.01,-73.48C513.04,-72.98 516.05,-72.48 519,-72 628.49,-54.14 758.07,-34.22 820.58,-24.68"/>
<polygon fill="grey" stroke="grey" stroke-width="2" points="821.38,-28.1 830.74,-23.14 820.32,-21.18 821.38,-28.1"/>
</g>
<!-- 4 -->
<g id="node5" class="node">
<title>4</title>
<path fill="none" stroke="#d85656" stroke-width="2" d="M698,-108C698,-108 540,-108 540,-108 534,-108 528,-102 528,-96 528,-96 528,-84 528,-84 528,-78 534,-72 540,-72 540,-72 698,-72 698,-72 704,-72 710,-78 710,-84 710,-84 710,-96 710,-96 710,-102 704,-108 698,-108"/>
<text text-anchor="middle" x="619" y="-93" font-family="sans" font-size="10.00">clean_raw_reads</text>
<text text-anchor="middle" x="619" y="-82" font-family="sans" font-size="10.00">sample: NBS1079E&#45;30&#45;550131958</text>
</g>
<!-- 4&#45;&gt;0 -->
<g id="edge4" class="edge">
<title>4&#45;&gt;0</title>
<path fill="none" stroke="grey" stroke-width="2" d="M677.16,-71.97C722.06,-58.81 782.81,-41.02 821.21,-29.78"/>
<polygon fill="grey" stroke="grey" stroke-width="2" points="822.33,-33.1 830.94,-26.93 820.36,-26.38 822.33,-33.1"/>
</g>
<!-- 5 -->
<g id="node6" class="node">
<title>5</title>
<path fill="none" stroke="#d85656" stroke-width="2" d="M836,-108C836,-108 740,-108 740,-108 734,-108 728,-102 728,-96 728,-96 728,-84 728,-84 728,-78 734,-72 740,-72 740,-72 836,-72 836,-72 842,-72 848,-78 848,-84 848,-84 848,-96 848,-96 848,-102 842,-108 836,-108"/>
<text text-anchor="middle" x="788" y="-93" font-family="sans" font-size="10.00">clean_raw_reads</text>
<text text-anchor="middle" x="788" y="-82" font-family="sans" font-size="10.00">sample: 080613&#45;8&#45;pd</text>
</g>
<!-- 5&#45;&gt;0 -->
<g id="edge5" class="edge">
<title>5&#45;&gt;0</title>
<path fill="none" stroke="grey" stroke-width="2" d="M805.3,-71.7C813.86,-63.14 824.34,-52.66 833.7,-43.3"/>
<polygon fill="grey" stroke="grey" stroke-width="2" points="836.3,-45.65 840.9,-36.1 831.35,-40.7 836.3,-45.65"/>
</g>
<!-- 6 -->
<g id="node7" class="node">
<title>6</title>
<path fill="none" stroke="#d85656" stroke-width="2" d="M980,-108C980,-108 878,-108 878,-108 872,-108 866,-102 866,-96 866,-96 866,-84 866,-84 866,-78 872,-72 878,-72 878,-72 980,-72 980,-72 986,-72 992,-78 992,-84 992,-84 992,-96 992,-96 992,-102 986,-108 980,-108"/>
<text text-anchor="middle" x="929" y="-93" font-family="sans" font-size="10.00">clean_raw_reads</text>
<text text-anchor="middle" x="929" y="-82" font-family="sans" font-size="10.00">sample: 080813&#45;19&#45;pd</text>
</g>
<!-- 6&#45;&gt;0 -->
<g id="edge6" class="edge">
<title>6&#45;&gt;0</title>
<path fill="none" stroke="grey" stroke-width="2" d="M911.45,-71.7C902.77,-63.14 892.14,-52.66 882.65,-43.3"/>
<polygon fill="grey" stroke="grey" stroke-width="2" points="884.93,-40.63 875.35,-36.1 880.01,-45.62 884.93,-40.63"/>
</g>
<!-- 7 -->
<g id="node8" class="node">
<title>7</title>
<path fill="none" stroke="#d85656" stroke-width="2" d="M1121.5,-108C1121.5,-108 1022.5,-108 1022.5,-108 1016.5,-108 1010.5,-102 1010.5,-96 1010.5,-96 1010.5,-84 1010.5,-84 1010.5,-78 1016.5,-72 1022.5,-72 1022.5,-72 1121.5,-72 1121.5,-72 1127.5,-72 1133.5,-78 1133.5,-84 1133.5,-84 1133.5,-96 1133.5,-96 1133.5,-102 1127.5,-108 1121.5,-108"/>
<text text-anchor="middle" x="1072" y="-93" font-family="sans" font-size="10.00">clean_raw_reads</text>
<text text-anchor="middle" x="1072" y="-82" font-family="sans" font-size="10.00">sample: 080813&#45;7&#45;mc</text>
</g>
<!-- 7&#45;&gt;0 -->
<g id="edge7" class="edge">
<title>7&#45;&gt;0</title>
<path fill="none" stroke="grey" stroke-width="2" d="M1019.92,-71.97C981.19,-59.29 929.28,-42.31 894.79,-31.03"/>
<polygon fill="grey" stroke="grey" stroke-width="2" points="895.71,-27.65 885.11,-27.87 893.53,-34.3 895.71,-27.65"/>
</g>
<!-- 8 -->
<g id="node9" class="node">
<title>8</title>
<path fill="none" stroke="#d85656" stroke-width="2" d="M1262.5,-108C1262.5,-108 1163.5,-108 1163.5,-108 1157.5,-108 1151.5,-102 1151.5,-96 1151.5,-96 1151.5,-84 1151.5,-84 1151.5,-78 1157.5,-72 1163.5,-72 1163.5,-72 1262.5,-72 1262.5,-72 1268.5,-72 1274.5,-78 1274.5,-84 1274.5,-84 1274.5,-96 1274.5,-96 1274.5,-102 1268.5,-108 1262.5,-108"/>
<text text-anchor="middle" x="1213" y="-93" font-family="sans" font-size="10.00">clean_raw_reads</text>
<text text-anchor="middle" x="1213" y="-82" font-family="sans" font-size="10.00">sample: 080913&#45;2&#45;mc</text>
</g>
<!-- 8&#45;&gt;0 -->
<g id="edge8" class="edge">
<title>8&#45;&gt;0</title>
<path fill="none" stroke="grey" stroke-width="2" d="M1151.21,-73.8C1148.44,-73.18 1145.69,-72.58 1143,-72 1054.47,-53.03 949.62,-34.55 895.11,-25.24"/>
<polygon fill="grey" stroke="grey" stroke-width="2" points="895.66,-21.78 885.21,-23.55 894.48,-28.68 895.66,-21.78"/>
</g>
<!-- 9 -->
<g id="node10" class="node">
<title>9</title>
<path fill="none" stroke="#d85656" stroke-width="2" d="M1401,-108C1401,-108 1305,-108 1305,-108 1299,-108 1293,-102 1293,-96 1293,-96 1293,-84 1293,-84 1293,-78 1299,-72 1305,-72 1305,-72 1401,-72 1401,-72 1407,-72 1413,-78 1413,-84 1413,-84 1413,-96 1413,-96 1413,-102 1407,-108 1401,-108"/>
<text text-anchor="middle" x="1353" y="-93" font-family="sans" font-size="10.00">clean_raw_reads</text>
<text text-anchor="middle" x="1353" y="-82" font-family="sans" font-size="10.00">sample: 080913&#45;7&#45;ph</text>
</g>
<!-- 9&#45;&gt;0 -->
<g id="edge9" class="edge">
<title>9&#45;&gt;0</title>
<path fill="none" stroke="grey" stroke-width="2" d="M1292.88,-73.75C1289.88,-73.12 1286.91,-72.54 1284,-72 1141.5,-45.68 969.72,-28.76 895.34,-22.15"/>
<polygon fill="grey" stroke="grey" stroke-width="2" points="895.35,-18.64 885.08,-21.25 894.74,-25.61 895.35,-18.64"/>
</g>
<!-- 10 -->
<g id="node11" class="node">
<title>10</title>
<path fill="none" stroke="#afd856" stroke-width="2" d="M1535,-108C1535,-108 1443,-108 1443,-108 1437,-108 1431,-102 1431,-96 1431,-96 1431,-84 1431,-84 1431,-78 1437,-72 1443,-72 1443,-72 1535,-72 1535,-72 1541,-72 1547,-78 1547,-84 1547,-84 1547,-96 1547,-96 1547,-102 1541,-108 1535,-108"/>
<text text-anchor="middle" x="1489" y="-87.5" font-family="sans" font-size="10.00">get_host_references</text>
</g>
<!-- 10&#45;&gt;0 -->
<g id="edge10" class="edge">
<title>10&#45;&gt;0</title>
<path fill="none" stroke="grey" stroke-width="2" d="M1430.65,-73.63C1427.73,-73.04 1424.84,-72.49 1422,-72 1225.3,-38.01 985.98,-24.6 895.26,-20.51"/>
<polygon fill="grey" stroke="grey" stroke-width="2" points="895.34,-17.01 885.2,-20.06 895.04,-24 895.34,-17.01"/>
</g>
</g>
</svg>
