<?xml version="1.0" encoding="UTF-8" standalone="no"?>
<!DOCTYPE svg PUBLIC "-//W3C//DTD SVG 1.1//EN"
 "http://www.w3.org/Graphics/SVG/1.1/DTD/svg11.dtd">
<!-- Generated by graphviz version 6.0.2 (20221126.1951)
 -->
<!-- Title: snakemake_dag Pages: 1 -->
<svg width="1421pt" height="116pt"
 viewBox="0.00 0.00 1421.00 116.00" xmlns="http://www.w3.org/2000/svg" xmlns:xlink="http://www.w3.org/1999/xlink">
<g id="graph0" class="graph" transform="scale(1 1) rotate(0) translate(4 112)">
<title>snakemake_dag</title>
<polygon fill="white" stroke="none" points="-4,4 -4,-112 1417,-112 1417,4 -4,4"/>
<!-- 0 -->
<g id="node1" class="node">
<title>0</title>
<path fill="none" stroke="#59d856" stroke-width="2" stroke-dasharray="5,2" d="M803,-36C803,-36 773,-36 773,-36 767,-36 761,-30 761,-24 761,-24 761,-12 761,-12 761,-6 767,0 773,0 773,0 803,0 803,0 809,0 815,-6 815,-12 815,-12 815,-24 815,-24 815,-30 809,-36 803,-36"/>
<text text-anchor="middle" x="788" y="-15.5" font-family="sans" font-size="10.00">all</text>
</g>
<!-- 1 -->
<g id="node2" class="node">
<title>1</title>
<path fill="none" stroke="#56d8d8" stroke-width="2" stroke-dasharray="5,2" d="M170,-108C170,-108 12,-108 12,-108 6,-108 0,-102 0,-96 0,-96 0,-84 0,-84 0,-78 6,-72 12,-72 12,-72 170,-72 170,-72 176,-72 182,-78 182,-84 182,-84 182,-96 182,-96 182,-102 176,-108 170,-108"/>
<text text-anchor="middle" x="91" y="-93" font-family="sans" font-size="10.00">clean_raw_reads</text>
<text text-anchor="middle" x="91" y="-82" font-family="sans" font-size="10.00">sample: NBS1051F&#45;30&#45;542494038</text>
</g>
<!-- 1&#45;&gt;0 -->
<g id="edge1" class="edge">
<title>1&#45;&gt;0</title>
<path fill="none" stroke="grey" stroke-width="2" d="M182.24,-73.18C185.19,-72.77 188.12,-72.37 191,-72 401.91,-44.76 656.56,-27.23 750.69,-21.27"/>
<polygon fill="grey" stroke="grey" stroke-width="2" points="751.08,-24.76 760.84,-20.64 750.64,-17.77 751.08,-24.76"/>
</g>
<!-- 2 -->
<g id="node3" class="node">
<title>2</title>
<path fill="none" stroke="#56d8d8" stroke-width="2" stroke-dasharray="5,2" d="M297.5,-108C297.5,-108 212.5,-108 212.5,-108 206.5,-108 200.5,-102 200.5,-96 200.5,-96 200.5,-84 200.5,-84 200.5,-78 206.5,-72 212.5,-72 212.5,-72 297.5,-72 297.5,-72 303.5,-72 309.5,-78 309.5,-84 309.5,-84 309.5,-96 309.5,-96 309.5,-102 303.5,-108 297.5,-108"/>
<text text-anchor="middle" x="255" y="-93" font-family="sans" font-size="10.00">clean_raw_reads</text>
<text text-anchor="middle" x="255" y="-82" font-family="sans" font-size="10.00">sample: NBS1051F</text>
</g>
<!-- 2&#45;&gt;0 -->
<g id="edge2" class="edge">
<title>2&#45;&gt;0</title>
<path fill="none" stroke="grey" stroke-width="2" d="M309.69,-73.91C312.83,-73.22 315.95,-72.57 319,-72 478.14,-42.04 671.08,-26.75 750.79,-21.34"/>
<polygon fill="grey" stroke="grey" stroke-width="2" points="751.08,-24.83 760.83,-20.67 750.62,-17.84 751.08,-24.83"/>
</g>
<!-- 3 -->
<g id="node4" class="node">
<title>3</title>
<path fill="none" stroke="#56d8d8" stroke-width="2" stroke-dasharray="5,2" d="M498,-108C498,-108 340,-108 340,-108 334,-108 328,-102 328,-96 328,-96 328,-84 328,-84 328,-78 334,-72 340,-72 340,-72 498,-72 498,-72 504,-72 510,-78 510,-84 510,-84 510,-96 510,-96 510,-102 504,-108 498,-108"/>
<text text-anchor="middle" x="419" y="-93" font-family="sans" font-size="10.00">clean_raw_reads</text>
<text text-anchor="middle" x="419" y="-82" font-family="sans" font-size="10.00">sample: NBS1079E&#45;30&#45;542494038</text>
</g>
<!-- 3&#45;&gt;0 -->
<g id="edge3" class="edge">
<title>3&#45;&gt;0</title>
<path fill="none" stroke="grey" stroke-width="2" d="M508.8,-71.97C586.52,-57.22 695,-36.64 751.11,-26"/>
<polygon fill="grey" stroke="grey" stroke-width="2" points="751.79,-29.43 760.96,-24.13 750.49,-22.55 751.79,-29.43"/>
</g>
<!-- 4 -->
<g id="node5" class="node">
<title>4</title>
<path fill="none" stroke="#56d8d8" stroke-width="2" stroke-dasharray="5,2" d="M698,-108C698,-108 540,-108 540,-108 534,-108 528,-102 528,-96 528,-96 528,-84 528,-84 528,-78 534,-72 540,-72 540,-72 698,-72 698,-72 704,-72 710,-78 710,-84 710,-84 710,-96 710,-96 710,-102 704,-108 698,-108"/>
<text text-anchor="middle" x="619" y="-93" font-family="sans" font-size="10.00">clean_raw_reads</text>
<text text-anchor="middle" x="619" y="-82" font-family="sans" font-size="10.00">sample: NBS1079E&#45;30&#45;550131958</text>
</g>
<!-- 4&#45;&gt;0 -->
<g id="edge4" class="edge">
<title>4&#45;&gt;0</title>
<path fill="none" stroke="grey" stroke-width="2" d="M660.34,-71.88C688.19,-60.34 724.59,-45.26 751.39,-34.16"/>
<polygon fill="grey" stroke="grey" stroke-width="2" points="752.9,-37.33 760.8,-30.27 750.22,-30.86 752.9,-37.33"/>
</g>
<!-- 5 -->
<g id="node6" class="node">
<title>5</title>
<path fill="none" stroke="#56d8d8" stroke-width="2" stroke-dasharray="5,2" d="M836,-108C836,-108 740,-108 740,-108 734,-108 728,-102 728,-96 728,-96 728,-84 728,-84 728,-78 734,-72 740,-72 740,-72 836,-72 836,-72 842,-72 848,-78 848,-84 848,-84 848,-96 848,-96 848,-102 842,-108 836,-108"/>
<text text-anchor="middle" x="788" y="-93" font-family="sans" font-size="10.00">clean_raw_reads</text>
<text text-anchor="middle" x="788" y="-82" font-family="sans" font-size="10.00">sample: 080613&#45;8&#45;pd</text>
</g>
<!-- 5&#45;&gt;0 -->
<g id="edge5" class="edge">
<title>5&#45;&gt;0</title>
<path fill="none" stroke="grey" stroke-width="2" d="M788,-71.7C788,-63.98 788,-54.71 788,-46.11"/>
<polygon fill="grey" stroke="grey" stroke-width="2" points="791.5,-46.1 788,-36.1 784.5,-46.1 791.5,-46.1"/>
</g>
<!-- 6 -->
<g id="node7" class="node">
<title>6</title>
<path fill="none" stroke="#56d8d8" stroke-width="2" stroke-dasharray="5,2" d="M980,-108C980,-108 878,-108 878,-108 872,-108 866,-102 866,-96 866,-96 866,-84 866,-84 866,-78 872,-72 878,-72 878,-72 980,-72 980,-72 986,-72 992,-78 992,-84 992,-84 992,-96 992,-96 992,-102 986,-108 980,-108"/>
<text text-anchor="middle" x="929" y="-93" font-family="sans" font-size="10.00">clean_raw_reads</text>
<text text-anchor="middle" x="929" y="-82" font-family="sans" font-size="10.00">sample: 080813&#45;19&#45;pd</text>
</g>
<!-- 6&#45;&gt;0 -->
<g id="edge6" class="edge">
<title>6&#45;&gt;0</title>
<path fill="none" stroke="grey" stroke-width="2" d="M894.51,-71.88C873.2,-61.3 845.9,-47.74 824.27,-37.01"/>
<polygon fill="grey" stroke="grey" stroke-width="2" points="825.59,-33.76 815.08,-32.44 822.48,-40.03 825.59,-33.76"/>
</g>
<!-- 7 -->
<g id="node8" class="node">
<title>7</title>
<path fill="none" stroke="#56d8d8" stroke-width="2" stroke-dasharray="5,2" d="M1121.5,-108C1121.5,-108 1022.5,-108 1022.5,-108 1016.5,-108 1010.5,-102 1010.5,-96 1010.5,-96 1010.5,-84 1010.5,-84 1010.5,-78 1016.5,-72 1022.5,-72 1022.5,-72 1121.5,-72 1121.5,-72 1127.5,-72 1133.5,-78 1133.5,-84 1133.5,-84 1133.5,-96 1133.5,-96 1133.5,-102 1127.5,-108 1121.5,-108"/>
<text text-anchor="middle" x="1072" y="-93" font-family="sans" font-size="10.00">clean_raw_reads</text>
<text text-anchor="middle" x="1072" y="-82" font-family="sans" font-size="10.00">sample: 080813&#45;7&#45;mc</text>
</g>
<!-- 7&#45;&gt;0 -->
<g id="edge7" class="edge">
<title>7&#45;&gt;0</title>
<path fill="none" stroke="grey" stroke-width="2" d="M1010.38,-73.81C953.84,-59.88 871.95,-39.69 824.94,-28.1"/>
<polygon fill="grey" stroke="grey" stroke-width="2" points="825.72,-24.69 815.17,-25.7 824.05,-31.49 825.72,-24.69"/>
</g>
<!-- 8 -->
<g id="node9" class="node">
<title>8</title>
<path fill="none" stroke="#56d8d8" stroke-width="2" stroke-dasharray="5,2" d="M1262.5,-108C1262.5,-108 1163.5,-108 1163.5,-108 1157.5,-108 1151.5,-102 1151.5,-96 1151.5,-96 1151.5,-84 1151.5,-84 1151.5,-78 1157.5,-72 1163.5,-72 1163.5,-72 1262.5,-72 1262.5,-72 1268.5,-72 1274.5,-78 1274.5,-84 1274.5,-84 1274.5,-96 1274.5,-96 1274.5,-102 1268.5,-108 1262.5,-108"/>
<text text-anchor="middle" x="1213" y="-93" font-family="sans" font-size="10.00">clean_raw_reads</text>
<text text-anchor="middle" x="1213" y="-82" font-family="sans" font-size="10.00">sample: 080913&#45;2&#45;mc</text>
</g>
<!-- 8&#45;&gt;0 -->
<g id="edge8" class="edge">
<title>8&#45;&gt;0</title>
<path fill="none" stroke="grey" stroke-width="2" d="M1151.23,-73.68C1148.45,-73.09 1145.7,-72.53 1143,-72 1028.01,-49.5 890.42,-31.46 825.47,-23.47"/>
<polygon fill="grey" stroke="grey" stroke-width="2" points="825.66,-19.96 815.31,-22.23 824.81,-26.91 825.66,-19.96"/>
</g>
<!-- 9 -->
<g id="node10" class="node">
<title>9</title>
<path fill="none" stroke="#56d8d8" stroke-width="2" stroke-dasharray="5,2" d="M1401,-108C1401,-108 1305,-108 1305,-108 1299,-108 1293,-102 1293,-96 1293,-96 1293,-84 1293,-84 1293,-78 1299,-72 1305,-72 1305,-72 1401,-72 1401,-72 1407,-72 1413,-78 1413,-84 1413,-84 1413,-96 1413,-96 1413,-102 1407,-108 1401,-108"/>
<text text-anchor="middle" x="1353" y="-93" font-family="sans" font-size="10.00">clean_raw_reads</text>
<text text-anchor="middle" x="1353" y="-82" font-family="sans" font-size="10.00">sample: 080913&#45;7&#45;ph</text>
</g>
<!-- 9&#45;&gt;0 -->
<g id="edge9" class="edge">
<title>9&#45;&gt;0</title>
<path fill="none" stroke="grey" stroke-width="2" d="M1292.89,-73.68C1289.89,-73.08 1286.92,-72.51 1284,-72 1114.04,-42.12 908.15,-26.65 825.24,-21.25"/>
<polygon fill="grey" stroke="grey" stroke-width="2" points="825.27,-17.75 815.06,-20.6 824.82,-24.73 825.27,-17.75"/>
</g>
</g>
</svg>
