<?xml version="1.0" encoding="UTF-8" standalone="no"?>
<!DOCTYPE svg PUBLIC "-//W3C//DTD SVG 1.1//EN"
 "http://www.w3.org/Graphics/SVG/1.1/DTD/svg11.dtd">
<!-- Generated by graphviz version 2.40.1 (0)
 -->
<!-- Title: snakemake_dag Pages: 1 -->
<svg width="1553pt" height="116pt"
 viewBox="0.00 0.00 1553.00 116.00" xmlns="http://www.w3.org/2000/svg" xmlns:xlink="http://www.w3.org/1999/xlink">
<g id="graph0" class="graph" transform="scale(1 1) rotate(0) translate(4 112)">
<title>snakemake_dag</title>
<polygon fill="#ffffff" stroke="transparent" points="-4,4 -4,-112 1549,-112 1549,4 -4,4"/>
<!-- 0 -->
<g id="node1" class="node">
<title>0</title>
<path fill="none" stroke="#d85656" stroke-width="2" d="M871,-36C871,-36 841,-36 841,-36 835,-36 829,-30 829,-24 829,-24 829,-12 829,-12 829,-6 835,0 841,0 841,0 871,0 871,0 877,0 883,-6 883,-12 883,-12 883,-24 883,-24 883,-30 877,-36 871,-36"/>
<text text-anchor="middle" x="856" y="-15.5" font-family="sans" font-size="10.00" fill="#000000">all</text>
</g>
<!-- 1 -->
<g id="node2" class="node">
<title>1</title>
<path fill="none" stroke="#56d8a9" stroke-width="2" d="M170,-108C170,-108 12,-108 12,-108 6,-108 0,-102 0,-96 0,-96 0,-84 0,-84 0,-78 6,-72 12,-72 12,-72 170,-72 170,-72 176,-72 182,-78 182,-84 182,-84 182,-96 182,-96 182,-102 176,-108 170,-108"/>
<text text-anchor="middle" x="91" y="-93" font-family="sans" font-size="10.00" fill="#000000">clean_raw_reads</text>
<text text-anchor="middle" x="91" y="-82" font-family="sans" font-size="10.00" fill="#000000">sample: NBS1051F&#45;30&#45;542494038</text>
</g>
<!-- 1&#45;&gt;0 -->
<g id="edge1" class="edge">
<title>1&#45;&gt;0</title>
<path fill="none" stroke="#c0c0c0" stroke-width="2" d="M182.2288,-73.2021C185.1842,-72.7784 188.1138,-72.376 191,-72 429.2323,-40.961 717.9519,-24.7708 818.9703,-19.7431"/>
<polygon fill="#c0c0c0" stroke="#c0c0c0" stroke-width="2" points="819.1633,-23.2379 828.9794,-19.2511 818.8196,-16.2464 819.1633,-23.2379"/>
</g>
<!-- 2 -->
<g id="node3" class="node">
<title>2</title>
<path fill="none" stroke="#56d8a9" stroke-width="2" d="M296,-108C296,-108 212,-108 212,-108 206,-108 200,-102 200,-96 200,-96 200,-84 200,-84 200,-78 206,-72 212,-72 212,-72 296,-72 296,-72 302,-72 308,-78 308,-84 308,-84 308,-96 308,-96 308,-102 302,-108 296,-108"/>
<text text-anchor="middle" x="254" y="-93" font-family="sans" font-size="10.00" fill="#000000">clean_raw_reads</text>
<text text-anchor="middle" x="254" y="-82" font-family="sans" font-size="10.00" fill="#000000">sample: NBS1051F</text>
</g>
<!-- 2&#45;&gt;0 -->
<g id="edge2" class="edge">
<title>2&#45;&gt;0</title>
<path fill="none" stroke="#c0c0c0" stroke-width="2" d="M308.1482,-73.8654C311.1305,-73.1845 314.0952,-72.5559 317,-72 503.3974,-36.3307 730.8496,-23.3415 818.8107,-19.4402"/>
<polygon fill="#c0c0c0" stroke="#c0c0c0" stroke-width="2" points="818.9939,-22.9356 828.8341,-19.0085 818.6927,-15.9421 818.9939,-22.9356"/>
</g>
<!-- 3 -->
<g id="node4" class="node">
<title>3</title>
<path fill="none" stroke="#56d8a9" stroke-width="2" d="M496,-108C496,-108 338,-108 338,-108 332,-108 326,-102 326,-96 326,-96 326,-84 326,-84 326,-78 332,-72 338,-72 338,-72 496,-72 496,-72 502,-72 508,-78 508,-84 508,-84 508,-96 508,-96 508,-102 502,-108 496,-108"/>
<text text-anchor="middle" x="417" y="-93" font-family="sans" font-size="10.00" fill="#000000">clean_raw_reads</text>
<text text-anchor="middle" x="417" y="-82" font-family="sans" font-size="10.00" fill="#000000">sample: NBS1079E&#45;30&#45;542494038</text>
</g>
<!-- 3&#45;&gt;0 -->
<g id="edge3" class="edge">
<title>3&#45;&gt;0</title>
<path fill="none" stroke="#c0c0c0" stroke-width="2" d="M508.0048,-73.539C511.0385,-73.0158 514.0434,-72.5015 517,-72 626.4208,-53.4391 756.0378,-33.3067 818.5644,-23.7111"/>
<polygon fill="#c0c0c0" stroke="#c0c0c0" stroke-width="2" points="819.3712,-27.1285 828.7256,-22.1539 818.3108,-20.2092 819.3712,-27.1285"/>
</g>
<!-- 4 -->
<g id="node5" class="node">
<title>4</title>
<path fill="none" stroke="#56d8a9" stroke-width="2" d="M696,-108C696,-108 538,-108 538,-108 532,-108 526,-102 526,-96 526,-96 526,-84 526,-84 526,-78 532,-72 538,-72 538,-72 696,-72 696,-72 702,-72 708,-78 708,-84 708,-84 708,-96 708,-96 708,-102 702,-108 696,-108"/>
<text text-anchor="middle" x="617" y="-93" font-family="sans" font-size="10.00" fill="#000000">clean_raw_reads</text>
<text text-anchor="middle" x="617" y="-82" font-family="sans" font-size="10.00" fill="#000000">sample: NBS1079E&#45;30&#45;550131958</text>
</g>
<!-- 4&#45;&gt;0 -->
<g id="edge4" class="edge">
<title>4&#45;&gt;0</title>
<path fill="none" stroke="#c0c0c0" stroke-width="2" d="M677.0013,-71.9243C721.6812,-58.4643 781.2595,-40.516 819.1357,-29.1056"/>
<polygon fill="#c0c0c0" stroke="#c0c0c0" stroke-width="2" points="820.1784,-32.4469 828.7437,-26.2111 818.1592,-25.7444 820.1784,-32.4469"/>
</g>
<!-- 5 -->
<g id="node6" class="node">
<title>5</title>
<path fill="none" stroke="#56d8a9" stroke-width="2" d="M834,-108C834,-108 738,-108 738,-108 732,-108 726,-102 726,-96 726,-96 726,-84 726,-84 726,-78 732,-72 738,-72 738,-72 834,-72 834,-72 840,-72 846,-78 846,-84 846,-84 846,-96 846,-96 846,-102 840,-108 834,-108"/>
<text text-anchor="middle" x="786" y="-93" font-family="sans" font-size="10.00" fill="#000000">clean_raw_reads</text>
<text text-anchor="middle" x="786" y="-82" font-family="sans" font-size="10.00" fill="#000000">sample: 080613&#45;8&#45;pd</text>
</g>
<!-- 5&#45;&gt;0 -->
<g id="edge5" class="edge">
<title>5&#45;&gt;0</title>
<path fill="none" stroke="#c0c0c0" stroke-width="2" d="M803.664,-71.8314C811.9732,-63.2848 822.0264,-52.9443 831.0918,-43.6198"/>
<polygon fill="#c0c0c0" stroke="#c0c0c0" stroke-width="2" points="833.6369,-46.023 838.0982,-36.4133 828.6179,-41.1435 833.6369,-46.023"/>
</g>
<!-- 6 -->
<g id="node7" class="node">
<title>6</title>
<path fill="none" stroke="#56d8a9" stroke-width="2" d="M978,-108C978,-108 876,-108 876,-108 870,-108 864,-102 864,-96 864,-96 864,-84 864,-84 864,-78 870,-72 876,-72 876,-72 978,-72 978,-72 984,-72 990,-78 990,-84 990,-84 990,-96 990,-96 990,-102 984,-108 978,-108"/>
<text text-anchor="middle" x="927" y="-93" font-family="sans" font-size="10.00" fill="#000000">clean_raw_reads</text>
<text text-anchor="middle" x="927" y="-82" font-family="sans" font-size="10.00" fill="#000000">sample: 080813&#45;19&#45;pd</text>
</g>
<!-- 6&#45;&gt;0 -->
<g id="edge6" class="edge">
<title>6&#45;&gt;0</title>
<path fill="none" stroke="#c0c0c0" stroke-width="2" d="M909.0837,-71.8314C900.6558,-63.2848 890.459,-52.9443 881.264,-43.6198"/>
<polygon fill="#c0c0c0" stroke="#c0c0c0" stroke-width="2" points="883.6711,-41.0761 874.1575,-36.4133 878.6869,-45.9912 883.6711,-41.0761"/>
</g>
<!-- 7 -->
<g id="node8" class="node">
<title>7</title>
<path fill="none" stroke="#56d8a9" stroke-width="2" d="M1119.5,-108C1119.5,-108 1020.5,-108 1020.5,-108 1014.5,-108 1008.5,-102 1008.5,-96 1008.5,-96 1008.5,-84 1008.5,-84 1008.5,-78 1014.5,-72 1020.5,-72 1020.5,-72 1119.5,-72 1119.5,-72 1125.5,-72 1131.5,-78 1131.5,-84 1131.5,-84 1131.5,-96 1131.5,-96 1131.5,-102 1125.5,-108 1119.5,-108"/>
<text text-anchor="middle" x="1070" y="-93" font-family="sans" font-size="10.00" fill="#000000">clean_raw_reads</text>
<text text-anchor="middle" x="1070" y="-82" font-family="sans" font-size="10.00" fill="#000000">sample: 080813&#45;7&#45;mc</text>
</g>
<!-- 7&#45;&gt;0 -->
<g id="edge7" class="edge">
<title>7&#45;&gt;0</title>
<path fill="none" stroke="#c0c0c0" stroke-width="2" d="M1016.275,-71.9243C977.7361,-58.9579 926.8178,-41.8265 892.8167,-30.3869"/>
<polygon fill="#c0c0c0" stroke="#c0c0c0" stroke-width="2" points="893.8645,-27.0467 883.2705,-27.1751 891.6323,-33.6813 893.8645,-27.0467"/>
</g>
<!-- 8 -->
<g id="node9" class="node">
<title>8</title>
<path fill="none" stroke="#56d8a9" stroke-width="2" d="M1260.5,-108C1260.5,-108 1161.5,-108 1161.5,-108 1155.5,-108 1149.5,-102 1149.5,-96 1149.5,-96 1149.5,-84 1149.5,-84 1149.5,-78 1155.5,-72 1161.5,-72 1161.5,-72 1260.5,-72 1260.5,-72 1266.5,-72 1272.5,-78 1272.5,-84 1272.5,-84 1272.5,-96 1272.5,-96 1272.5,-102 1266.5,-108 1260.5,-108"/>
<text text-anchor="middle" x="1211" y="-93" font-family="sans" font-size="10.00" fill="#000000">clean_raw_reads</text>
<text text-anchor="middle" x="1211" y="-82" font-family="sans" font-size="10.00" fill="#000000">sample: 080913&#45;2&#45;mc</text>
</g>
<!-- 8&#45;&gt;0 -->
<g id="edge8" class="edge">
<title>8&#45;&gt;0</title>
<path fill="none" stroke="#c0c0c0" stroke-width="2" d="M1149.2156,-73.8824C1146.4426,-73.2317 1143.6944,-72.601 1141,-72 1052.5739,-52.2752 947.6801,-33.6051 893.1347,-24.2487"/>
<polygon fill="#c0c0c0" stroke="#c0c0c0" stroke-width="2" points="893.6803,-20.7913 883.2338,-22.558 892.5019,-27.6914 893.6803,-20.7913"/>
</g>
<!-- 9 -->
<g id="node10" class="node">
<title>9</title>
<path fill="none" stroke="#56d8a9" stroke-width="2" d="M1399,-108C1399,-108 1303,-108 1303,-108 1297,-108 1291,-102 1291,-96 1291,-96 1291,-84 1291,-84 1291,-78 1297,-72 1303,-72 1303,-72 1399,-72 1399,-72 1405,-72 1411,-78 1411,-84 1411,-84 1411,-96 1411,-96 1411,-102 1405,-108 1399,-108"/>
<text text-anchor="middle" x="1351" y="-93" font-family="sans" font-size="10.00" fill="#000000">clean_raw_reads</text>
<text text-anchor="middle" x="1351" y="-82" font-family="sans" font-size="10.00" fill="#000000">sample: 080913&#45;7&#45;ph</text>
</g>
<!-- 9&#45;&gt;0 -->
<g id="edge9" class="edge">
<title>9&#45;&gt;0</title>
<path fill="none" stroke="#c0c0c0" stroke-width="2" d="M1290.8937,-73.8321C1287.8942,-73.1786 1284.9174,-72.563 1282,-72 1139.6725,-44.5338 967.7987,-27.6388 893.3656,-21.1014"/>
<polygon fill="#c0c0c0" stroke="#c0c0c0" stroke-width="2" points="893.3708,-17.5888 883.1058,-20.212 892.7662,-24.5627 893.3708,-17.5888"/>
</g>
<!-- 10 -->
<g id="node11" class="node">
<title>10</title>
<path fill="none" stroke="#afd856" stroke-width="2" d="M1533,-108C1533,-108 1441,-108 1441,-108 1435,-108 1429,-102 1429,-96 1429,-96 1429,-84 1429,-84 1429,-78 1435,-72 1441,-72 1441,-72 1533,-72 1533,-72 1539,-72 1545,-78 1545,-84 1545,-84 1545,-96 1545,-96 1545,-102 1539,-108 1533,-108"/>
<text text-anchor="middle" x="1487" y="-87.5" font-family="sans" font-size="10.00" fill="#000000">get_host_references</text>
</g>
<!-- 10&#45;&gt;0 -->
<g id="edge10" class="edge">
<title>10&#45;&gt;0</title>
<path fill="none" stroke="#c0c0c0" stroke-width="2" d="M1428.6646,-73.7127C1425.7445,-73.0908 1422.8445,-72.5145 1420,-72 1223.544,-36.4627 984.0829,-23.3322 893.2953,-19.417"/>
<polygon fill="#c0c0c0" stroke="#c0c0c0" stroke-width="2" points="893.3605,-15.9167 883.2225,-18.9944 893.067,-22.9106 893.3605,-15.9167"/>
</g>
</g>
</svg>
